<svg 
 xmlns="http://www.w3.org/2000/svg"
 xmlns:xlink="http://www.w3.org/1999/xlink"
 width="10px" height="5px">
<path fill-rule="evenodd"  fill="rgb(35, 116, 231)"
 d="M8.000,5.000 L8.000,4.000 L7.000,4.000 L7.000,3.000 L6.000,3.000 L6.000,2.000 L5.000,2.000 L4.000,2.000 L4.000,3.000 L3.000,3.000 L3.000,4.000 L2.000,4.000 L2.000,5.000 L-0.000,5.000 L-0.000,4.000 L1.000,4.000 L1.000,3.000 L2.000,3.000 L2.000,2.000 L3.000,2.000 L3.000,1.000 L4.000,1.000 L4.000,-0.000 L6.000,-0.000 L6.000,1.000 L7.000,1.000 L7.000,2.000 L8.000,2.000 L8.000,3.000 L9.000,3.000 L9.000,4.000 L10.000,4.000 L10.000,5.000 L8.000,5.000 Z"/>
</svg>