  <svg 
 xmlns="http://www.w3.org/2000/svg"
 xmlns:xlink="http://www.w3.org/1999/xlink" 
 width="21.5px" height="21.5px">
<path fill-rule="evenodd"  stroke="rgb(255, 255, 255)" stroke-width="1px" stroke-linecap="butt" stroke-linejoin="miter" opacity="0.4" fill="none"
 d="M10.500,0.500 C16.023,0.500 20.500,4.977 20.500,10.500 C20.500,16.023 16.023,20.500 10.500,20.500 C4.977,20.500 0.500,16.023 0.500,10.500 C0.500,4.977 4.977,0.500 10.500,0.500 Z"/>
<path fill-rule="evenodd"  stroke="rgb(255, 255, 255)" stroke-width="1px" stroke-linecap="butt" stroke-linejoin="miter" fill="none"
 d="M11.500,11.500 L11.500,10.500 L11.500,9.500 L12.500,9.500 L12.500,10.500 L12.500,11.500 L11.500,11.500 ZM10.500,12.500 L10.500,11.500 L11.500,11.500 L11.500,12.500 L10.500,12.500 ZM9.500,13.500 L9.500,12.500 L10.500,12.500 L10.500,13.500 L9.500,13.500 ZM8.500,14.500 L8.500,13.500 L9.500,13.500 L9.500,14.500 L8.500,14.500 ZM10.500,8.500 L11.500,8.500 L11.500,9.500 L10.500,9.500 L10.500,8.500 ZM9.500,7.500 L10.500,7.500 L10.500,8.500 L9.500,8.500 L9.500,7.500 ZM8.500,6.500 L9.500,6.500 L9.500,7.500 L8.500,7.500 L8.500,6.500 Z"/>
</svg>