<svg 
 xmlns="http://www.w3.org/2000/svg"
 xmlns:xlink="http://www.w3.org/1999/xlink" viewBox="0 0 55.5 57.5"
 width="55.5px" height="57.5px">
<path fill-rule="evenodd" stroke-width="3px" stroke-linecap="butt" stroke-linejoin="miter" fill="none"
 d="M6.500,14.500 L18.500,14.500 C20.709,14.500 22.500,16.291 22.500,18.500 L22.500,50.500 C22.500,52.709 20.709,54.500 18.500,54.500 L6.500,54.500 C4.291,54.500 2.500,52.709 2.500,50.500 L2.500,18.500 C2.500,16.291 4.291,14.500 6.500,14.500 Z"/>
<path fill-rule="evenodd" stroke-width="3px" stroke-linecap="butt" stroke-linejoin="miter" fill="none"
 d="M39.000,24.500 L28.000,24.500 C27.172,24.500 26.500,23.828 26.500,23.000 C26.500,22.172 27.172,21.500 28.000,21.500 L39.000,21.500 C39.828,21.500 40.500,22.172 40.500,23.000 C40.500,23.828 39.828,24.500 39.000,24.500 ZM35.000,16.500 L28.000,16.500 C27.172,16.500 26.500,15.828 26.500,15.000 C26.500,14.172 27.172,13.500 28.000,13.500 L35.000,13.500 C35.828,13.500 36.500,14.172 36.500,15.000 C36.500,15.828 35.828,16.500 35.000,16.500 ZM28.000,29.500 L35.000,29.500 C35.828,29.500 36.500,30.172 36.500,31.000 C36.500,31.828 35.828,32.500 35.000,32.500 L28.000,32.500 C27.172,32.500 26.500,31.828 26.500,31.000 C26.500,30.172 27.172,29.500 28.000,29.500 ZM28.000,37.500 L35.000,37.500 C35.828,37.500 36.500,38.172 36.500,39.000 C36.500,39.828 35.828,40.500 35.000,40.500 L28.000,40.500 C27.172,40.500 26.500,39.828 26.500,39.000 C26.500,38.172 27.172,37.500 28.000,37.500 Z"/>
<path fill-rule="evenodd" stroke-width="3px" stroke-linecap="butt" stroke-linejoin="miter" fill="none"
 d="M30.500,2.500 L48.500,2.500 C50.709,2.500 52.500,4.291 52.500,6.500 L52.500,50.500 C52.500,52.709 50.709,54.500 48.500,54.500 L30.500,54.500 C28.291,54.500 26.500,52.709 26.500,50.500 L26.500,6.500 C26.500,4.291 28.291,2.500 30.500,2.500 Z"/>
<path fill-rule="evenodd" stroke-width="3px" stroke-linecap="butt" stroke-linejoin="miter" fill="none"
 d="M2.358,17.500 L12.500,2.358 L22.642,17.500 L2.358,17.500 Z"/>
</svg>