<svg 
 xmlns="http://www.w3.org/2000/svg"
 xmlns:xlink="http://www.w3.org/1999/xlink" viewbox="0 0 73.5 68.5"
 width="73.5px" height="68.5px" stroke="#000">
<path fill-rule="evenodd" stroke-width="3px" stroke-linecap="butt" stroke-linejoin="miter" fill="none"
 d="M44.500,48.903 L44.500,57.500 C44.500,59.157 43.157,60.500 41.500,60.500 L29.500,60.500 C27.843,60.500 26.500,59.157 26.500,57.500 L26.500,48.903 C21.701,45.898 18.500,40.579 18.500,34.500 C18.500,25.111 26.111,17.500 35.500,17.500 C44.889,17.500 52.500,25.111 52.500,34.500 C52.500,40.579 49.299,45.898 44.500,48.903 Z"/>
<path fill-rule="evenodd" stroke-width="3px" stroke-linecap="butt" stroke-linejoin="miter" fill="none"
 d="M26.500,49.500 L44.500,49.500 L44.500,52.500 L26.500,52.500 L26.500,49.500 Z"/>
<path fill-rule="evenodd" stroke-width="3px" stroke-linecap="butt" stroke-linejoin="miter" fill="none"
 d="M31.000,62.500 L40.000,62.500 C40.828,62.500 41.500,63.172 41.500,64.000 C41.500,64.828 40.828,65.500 40.000,65.500 L31.000,65.500 C30.172,65.500 29.500,64.828 29.500,64.000 C29.500,63.172 30.172,62.500 31.000,62.500 Z"/>
<path fill-rule="evenodd" stroke-width="3px" stroke-linecap="butt" stroke-linejoin="miter" fill="none"
 d="M68.392,36.892 L62.392,36.892 C61.564,36.892 60.892,36.221 60.892,35.392 C60.892,34.564 61.564,33.892 62.392,33.892 L68.392,33.892 C69.221,33.892 69.892,34.564 69.892,35.392 C69.892,36.221 69.221,36.892 68.392,36.892 ZM55.723,17.791 C55.137,18.376 54.187,18.376 53.601,17.791 C53.016,17.205 53.016,16.255 53.601,15.669 L57.844,11.427 C58.430,10.841 59.380,10.841 59.965,11.427 C60.551,12.013 60.551,12.962 59.965,13.548 L55.723,17.791 ZM36.000,10.500 C35.172,10.500 34.500,9.828 34.500,9.000 L34.500,3.000 C34.500,2.171 35.172,1.500 36.000,1.500 C36.828,1.500 37.500,2.171 37.500,3.000 L37.500,9.000 C37.500,9.828 36.828,10.500 36.000,10.500 ZM16.277,17.791 L12.034,13.548 C11.449,12.962 11.449,12.013 12.034,11.427 C12.620,10.841 13.570,10.841 14.156,11.427 L18.398,15.669 C18.984,16.255 18.984,17.205 18.398,17.791 C17.813,18.376 16.863,18.376 16.277,17.791 ZM9.608,36.892 L3.608,36.892 C2.779,36.892 2.108,36.221 2.108,35.392 C2.108,34.564 2.779,33.892 3.608,33.892 L9.608,33.892 C10.436,33.892 11.108,34.564 11.108,35.392 C11.108,36.221 10.436,36.892 9.608,36.892 Z"/>
</svg>