<svg xmlns="http://www.w3.org/2000/svg" viewBox="0 0 70.69 35.6" fill="red">
<path d="M28.71,23.08l-.89,4.79h-.35c0-3-1.9-4.27-4.26-5H17.36v-.18h-.53v-.18l-.53-.18c-.22-.77-1.28-2-.35-2.84.38-1.45,2.06-1.42,3.9-1.42h9.57C29.69,17,30.6,16.71,31.2,16h.35v-.18H27.83a20.73,20.73,0,0,0-4.61-.18c-1.74,0-4.07-.23-5.5.18L15.95,16v.18l-.71.18-.18.35h-.35v.18l-.71.53v.35l-.35.18a7.14,7.14,0,0,0-.71,3.37l.71,2h.18a2,2,0,0,1,.53.89,1.46,1.46,0,0,1,.71.35v.18h.35l.18.35h.53v.18h.53v.18h1.06c1.45.43,3.91.2,5.67.18l1.24,1.06a10.75,10.75,0,0,1,.18,2.13L23.93,30c-3,.6-7.4.38-11,.35v2.48h7.45a12.86,12.86,0,0,0,3.72-.18,5.05,5.05,0,0,0,3-3h.35l-.53,2.31-.35.18v.35c-.07.11-.24.14-.35.35l-1.06.35v.18H14c-1.93,0-4,.17-5.5-.35v-.18H8v-.18l-.71-.18V32.3H6.9l-.35-.53H6.19l-.35-.53-.53-.18-.18-.53L4.42,30v-.35l-.35-.18-.18-.71H3.71l-.35-1.06H3.18a12.63,12.63,0,0,1-.35-4.08H3v-.89h.18V22h.18L3.71,21h.18V20.6h.18v-.35l.35-.18v-.35c.32-.46.67-.29.89-1.06a2.63,2.63,0,0,0,1.06-.71v-.18a9.51,9.51,0,0,1,4.08-1.42c.66,0,1.95-.15,2.31.18h1.77a3.88,3.88,0,0,1,.53-.53v-3.9L16.3,8.36l.35-.18V7.83l.53-.35V7.12l.71-.53V6.24l.71-.53V5.53H19L19.32,5h.35l.18-.35h.35l.18-.35.71-.18V3.93l.71-.18V3.58h.53V3.4h.35V3.22h.71a10.75,10.75,0,0,1,4.26-.35V3h.89v.18h.71V3.4h.35v.18h.53v.18l1.06.35v.18l.71.18.18.35h.35l.53.71h.35l.71.89.35.18v.35l.53.35a10.71,10.71,0,0,1,2,6.56h2.48a13.65,13.65,0,0,0-6.56-11.7L32.08,2V1.8l-.71-.18V1.45l-.89-.18V1.09H30V.92L28.71.74V.56h-.89A10.23,10.23,0,0,0,22,1.09l-1.06.18v.18l-1.06.35V2h-.35v.18h-.35a13.65,13.65,0,0,0-6.56,11.7c-4.34,0-6.72,1-8.87,3.19l-.89.71v.35l-.53.35v.35L1.94,19l-.35,1.06H1.41l-.18.71H1.05v.53H.87v.53H.7v.89H.52a11,11,0,0,0,.18,5H.87l.18,1.24h.18l.18.71h.18l.18.71.35.18.18.71.53.35v.35l.35.18,1.06,1.24H4.6L5,33.9h.35l.18.35.71.18v.18L7.26,35v.18l1.06.18v.18l1.24.18v.18H20.38c2.27,0,5.45.37,6.92-.53l.18-.35h.35l.18-.35.89-.71v-.35h.18l.35-1.06h.18v-.89h.18V30.7H30l.18-1.77a13.56,13.56,0,0,0,.71-3.37h5.5L36,23.08Zm14.36,7.27a2.25,2.25,0,0,1-.89-.18,36.06,36.06,0,0,0-.89-3.9l-.18-1.77h-.18l-.35-2.66h-.18l-.18-1.77h-.18v-.71h-.18V19h-.18l-.18-.71-.35-.18v-.35l-.71-.53-.18-.35h-.35l-.18-.35L37,16.34v-.18h-.35V16a9.21,9.21,0,0,0-2.48-.35v.18h-.89V16h-.53v.18l-.89.18-.35.53H31.2l-.18.35-.71.53v.35l-.35.18v.35a3.46,3.46,0,0,0-.71,2h2.48a6.42,6.42,0,0,1,1.06-2c.81-.19,2.35-1.06,3.19-.18,1.56.42,1.67,2.39,2.13,3.9v1.06h.18V24.5h.18v1.06h.18v.89h.18v.89H39V28h.18v.89h.18v.89h.18v.71h.18v.53l.35.18v.35h.18l.53.71h.35v.18h.35v.18h.71c.81.26.88,0,1.77,0l1.42-1.24v-.35h.18V30.7h.18L46.27,28H43.61Zm27.84-3.19h-.18l-.18-1.06h-.18v-.53L70,25.39V25h-.18a1.48,1.48,0,0,1-.35-.71,2,2,0,0,1-.89-.53v-.18h-.35v-.18H67.9v-.18h-.53v-.18h-.89a17.46,17.46,0,0,0-4.08-.18H60.63v-.18l-.71-.18c-.38-.25-.48-.81-.89-1.06v-2l.35-.18V19h.18l.35-.53.89-.18v-.18h7.45a8.33,8.33,0,0,0-.18-2.48c-3.29,0-7.73-.47-9.75.89l-.89,1.06-.35.18v.35l-.35.18v.53h-.18c-.19.47,0,1.07-.35,1.42v.18c-.39-.41-.26-1.08-.53-1.6h-.18v-.35l-.35-.18v-.35l-.35-.18-.89-1.06h-.35l-.18-.35a12,12,0,0,0-3.19-.71v.18H49.1V16h-.53v.18h-.35v.18l-.71.18-.18.35H47l-.53.71-.35.18v.35l-.35.18v.35h-.18V19h-.18l-.18,1.06H45l-.35,2.66a10.19,10.19,0,0,0-.53,2.84h8l-.35-2.48H47.15a8.82,8.82,0,0,1,.71-3.19v-.35H48l.89-1.06c.79-.17,2.13-.74,2.84,0a3.07,3.07,0,0,1,1.77,2v.89h.18v.89l1.77,8.69.35.18v.35H56a2.63,2.63,0,0,0,1.42,1.06c.67.63,4.13.35,5.5.35,2.37,0,4.48.07,5.85-.89l.53-.71L70,30.7v-.35l.35-.18v-.53A3.51,3.51,0,0,0,70.91,27.16Zm-2.84,1.77L67.19,30l-.71.18v.18H58.86a3.88,3.88,0,0,0-.89-.71l-1.42-6.92h.35c.15.73.47.82.89,1.24l.53.71c1.18.8,3.16.89,5.14.89h3.19v.18H67v.18l.53.18.18.53h.18V27h.18Z" transform="translate(-0.31 -0.32)" style="fill-rule:evenodd"/></svg>