<svg xmlns="http://www.w3.org/2000/svg" width="50" height="50" viewBox="0 0 50 50">
  <defs>
    <style>
      .cls-1 {
        fill: #fff;
        fill-rule: evenodd;
      }
    </style>
  </defs>
  <path id="形状_17" data-name="形状 17" class="cls-1" d="M1073.31,1973.73a20.435,20.435,0,0,0-18.05-18.04v-2.41a2.275,2.275,0,0,0-4.55,0h0v2.41a20.433,20.433,0,0,0-18.03,18.04h-2.41a2.275,2.275,0,0,0,0,4.55h2.41a20.434,20.434,0,0,0,18.05,18.03v2.41a2.27,2.27,0,1,0,4.54,0v-2.41a20.415,20.415,0,0,0,18.04-18.04h2.41a2.275,2.275,0,1,0,0-4.55Zm-20.32,18.17a15.905,15.905,0,1,1,15.91-15.91V1976a15.912,15.912,0,0,1-15.89,15.9h-0.02Zm-10.91-15.91a10.91,10.91,0,0,0,21.82.01v-0.01a10.91,10.91,0,0,0-21.82,0h0Z" transform="translate(-1028 -1951)"/>
</svg>
