<svg xmlns="http://www.w3.org/2000/svg" width="46" height="46" viewBox="0 0 46 46">
  <defs>
    <style>
      .cls-1 {
        fill: #fff;
        fill-rule: evenodd;
      }
    </style>
  </defs>
  <path id="形状_18" data-name="形状 18" class="cls-1" d="M1416.84,1999.59a0.966,0.966,0,0,1-1.52,0l-6.12-8.79v-32.21c0-2.69,1.58-4.58,4.23-4.58h4.92a4.62,4.62,0,0,1,3.34,1.42,4.69,4.69,0,0,1,1.3,3.39l0.01,31.98Zm2.71-38.69v-2.31a1.227,1.227,0,0,0-1.15-1.14h-4.59a1.227,1.227,0,0,0-1.15,1.14v3.46h6.9v-1.15h-0.01Zm0,4.6h-6.9v24.15l3.43,4,3.47-4V1965.5Zm-18.4,34.5H1381.6a4.594,4.594,0,0,1-4.6-4.6v-36.81a4.586,4.586,0,0,1,4.6-4.59h19.55a4.592,4.592,0,0,1,4.6,4.59v36.8A4.609,4.609,0,0,1,1401.15,2000Zm-4.03-32.2h-11.5a1.72,1.72,0,1,0,0,3.44h11.5A1.72,1.72,0,1,0,1397.12,1967.8Zm0,8.05h-11.5a1.72,1.72,0,1,0,0,3.44h11.5A1.72,1.72,0,1,0,1397.12,1975.85Zm0,8.04h-11.5a1.725,1.725,0,0,0,0,3.45h11.5A1.725,1.725,0,1,0,1397.12,1983.89Z" transform="translate(-1377 -1954)"/>
</svg>
