<svg xmlns="http://www.w3.org/2000/svg" width="52" height="52" viewBox="0 0 52 52">
  <defs>
    <style>
      .cls-1 {
        fill: #fff;
        fill-rule: evenodd;
      }
    </style>
  </defs>
  <path id="形状_15" data-name="形状 15" class="cls-1" d="M359.989,1951a26.011,26.011,0,0,0-1.067,52h15.24a2.552,2.552,0,0,0,2.368-2.37v-3.53A26.027,26.027,0,0,0,359.989,1951Zm-13.6,29.54a2.965,2.965,0,1,1,2.966-2.97,2.937,2.937,0,0,1-2.9,2.97h-0.068Zm13.6,0a2.965,2.965,0,1,1,2.966-2.97h0a2.936,2.936,0,0,1-2.9,2.97h-0.068Zm13.6,0a2.965,2.965,0,1,1,2.966-2.97h0a2.964,2.964,0,0,1-2.96,2.97h-0.006Z" transform="translate(-334 -1951)"/>
</svg>
