<svg xmlns="http://www.w3.org/2000/svg" width="42" height="46" viewBox="0 0 42 46">
  <defs>
    <style>
      .cls-1 {
        fill: #fff;
        fill-rule: evenodd;
      }
    </style>
  </defs>
  <path id="形状_16" data-name="形状 16" class="cls-1" d="M724.629,1954H689.367a3.4,3.4,0,0,0-3.368,3.41v39.18a3.4,3.4,0,0,0,3.368,3.41h28.315A10.41,10.41,0,0,0,728,1989.56v-32.15A3.4,3.4,0,0,0,724.629,1954Zm-28.209,9.8h11.052a2.13,2.13,0,0,1,0,4.26H696.42A2.13,2.13,0,0,1,696.42,1963.8Zm0,8.94h16.841a2.13,2.13,0,0,1,0,4.26H696.42A2.13,2.13,0,0,1,696.42,1972.74Zm5.263,13.15H696.42a2.13,2.13,0,0,1,0-4.26h5.263A2.13,2.13,0,0,1,701.683,1985.89Zm20.1-5.18-2.832,5.04h2.1a0.248,0.248,0,0,1,.248.25v1.77a0.248,0.248,0,0,1-.248.25h-3.273v1.3h3.268a0.248,0.248,0,0,1,.248.25v1.77a0.248,0.248,0,0,1-.248.25h-3.268V1995a0.254,0.254,0,0,1-.247.25h-2.716a0.253,0.253,0,0,1-.247-0.25v-3.4h-3.163a0.248,0.248,0,0,1-.248-0.25v-1.77a0.248,0.248,0,0,1,.248-0.25h3.163v-1.3h-3.163a0.248,0.248,0,0,1-.248-0.25v-1.77a0.248,0.248,0,0,1,.248-0.25h1.92l-2.836-5.05a0.254,0.254,0,0,1,.216-0.38h3.184l2.336,4.55,2.321-4.55h3.021A0.254,0.254,0,0,1,721.787,1980.71Z" transform="translate(-686 -1954)"/>
</svg>
