<svg xmlns="http://www.w3.org/2000/svg" width="52" height="42" viewBox="0 0 52 42">
  <defs>
    <style>
      .cls-1 {
        fill: #fff;
        fill-rule: evenodd;
      }
    </style>
  </defs>
  <path id="形状_19" data-name="形状 19" class="cls-1" d="M1576.66,2287.82a5.338,5.338,0,0,1-4.37-2.53,4.929,4.929,0,0,1,0-5.07,15.5,15.5,0,0,0-7.28-4.01,5.361,5.361,0,0,1-4.37,2.32,5.052,5.052,0,0,1-4.37-2.53,16.347,16.347,0,0,0-7.28,4.01,5.468,5.468,0,0,1,0,5.07,5.127,5.127,0,0,1-4.37,2.53,15.024,15.024,0,0,0-.62,4.22,12.624,12.624,0,0,0,.62,4.01,5.314,5.314,0,0,1,4.37,2.53,4.929,4.929,0,0,1,0,5.07,15.589,15.589,0,0,0,7.28,4.01,5.039,5.039,0,0,1,8.74,0,19.12,19.12,0,0,0,7.28-4.01,5.468,5.468,0,0,1,0-5.07,5.1,5.1,0,0,1,4.37-2.53,13.278,13.278,0,0,0,0-8.02h0Zm-16.02,8.23a4.385,4.385,0,0,1-4.37-4.22,4.373,4.373,0,0,1,8.74,0,4.385,4.385,0,0,1-4.37,4.22h0Zm34.94,8.65a3.22,3.22,0,0,1-2.7-1.69,3.285,3.285,0,0,1,0-3.37,11.157,11.157,0,0,0-4.58-2.75,3.22,3.22,0,0,1-2.7,1.69,2.975,2.975,0,0,1-2.7-1.69,10.334,10.334,0,0,0-4.58,2.75,3.285,3.285,0,0,1,0,3.37,3.22,3.22,0,0,1-2.7,1.69,9.18,9.18,0,0,0,0,5.49,3.22,3.22,0,0,1,2.7,1.69,3.3,3.3,0,0,1,0,3.38,11.14,11.14,0,0,0,4.58,2.74,3.22,3.22,0,0,1,2.7-1.69,2.975,2.975,0,0,1,2.7,1.69,10.313,10.313,0,0,0,4.58-2.74,3.3,3.3,0,0,1,0-3.38,3.22,3.22,0,0,1,2.7-1.69,9.18,9.18,0,0,0,0-5.49h0Zm-9.98,5.49a2.745,2.745,0,1,1,2.7-2.74,2.769,2.769,0,0,1-2.7,2.74h0Zm0,0" transform="translate(-1544 -2276)"/>
</svg>
