<svg 
 xmlns="http://www.w3.org/2000/svg"
 xmlns:xlink="http://www.w3.org/1999/xlink" viewbox="0 0 64 52"
 width="64px" height="52px">
<path fill-rule="evenodd"  fill="rgb(255, 255, 255)"
 d="M63.494,15.503 L46.169,0.377 C45.909,0.150 45.575,0.024 45.228,0.023 L26.094,0.023 C25.902,-0.017 25.704,-0.017 25.512,0.023 L16.823,0.023 C16.449,0.016 16.087,0.158 15.819,0.416 L0.430,15.523 C-0.130,16.063 -0.157,16.947 0.368,17.521 L31.179,51.677 C31.453,51.981 31.838,51.996 32.241,51.996 L32.250,51.996 C32.659,51.996 33.047,51.976 33.319,51.669 L63.625,17.593 C64.167,16.979 64.109,16.046 63.494,15.504 L63.494,15.503 ZM18.801,18.324 L28.387,44.388 L4.931,18.322 L18.801,18.322 L18.801,18.324 ZM36.605,2.951 L43.097,15.394 L21.409,15.394 L26.744,2.951 L36.605,2.951 ZM42.773,18.322 L32.254,46.668 L21.854,18.322 L42.773,18.322 ZM45.857,18.322 L59.098,18.322 L36.221,44.163 L45.854,18.322 L45.857,18.322 ZM58.945,15.394 L46.363,15.394 L39.872,2.951 L44.694,2.951 L58.945,15.394 ZM17.407,2.951 L23.588,2.951 L18.244,15.394 L4.749,15.394 L17.407,2.951 Z"/>
</svg>