<svg xmlns="http://www.w3.org/2000/svg" width="46" height="40" viewBox="0 0 46 40">
  <defs>
    <style>
      .cls-1 {
        fill: #fff;
        fill-rule: evenodd;
      }
    </style>
  </defs>
  <path id="形状_20" data-name="形状 20" class="cls-1" d="M1244.08,2277h-42.16a1.91,1.91,0,0,0-1.92,1.9v36.19a1.912,1.912,0,0,0,1.92,1.91h42.16a1.9,1.9,0,0,0,1.91-1.91V2278.9A1.9,1.9,0,0,0,1244.08,2277Zm-1.91,14.28v1.91c0,1.05-.26,1.83-1.32,1.83h-3.78v0.03a2.324,2.324,0,0,0-.97.4l-9.6,6.95a1.927,1.927,0,0,1-2.53-.25l-8.37-8.95-0.02.02a2.039,2.039,0,0,0-1.2-.38,2.079,2.079,0,0,0-1.13.33l-5.75,7.35a2.016,2.016,0,0,0-.42.34h-1.93c-1.05,0-1.31-.9-1.31-1.96v-8.57c0-1.05-.1-0.95.95-0.95h36.42C1242.26,2289.38,1242.17,2290.23,1242.17,2291.28Zm-24.92-11.12a2.205,2.205,0,1,1-2.16,2.21A2.188,2.188,0,0,1,1217.25,2280.16Zm-6.47,0a2.205,2.205,0,1,1-2.16,2.21A2.188,2.188,0,0,1,1210.78,2280.16Zm-6.46,0a2.205,2.205,0,1,1-2.16,2.21A2.179,2.179,0,0,1,1204.32,2280.16Zm-0.49,31.12v-5.71c0-1.05.26-2.28,1.32-2.28h4.19v-0.14a2.624,2.624,0,0,0,.5-0.26l3.18-4.11a1.923,1.923,0,0,1,2.87-.19l8.03,7.94a2.085,2.085,0,0,0,2.5-.02l12.22-8.82a2.9,2.9,0,0,0,.36-0.34h1.85c1.05,0,1.31.5,1.31,1.55v10.48c0,1.05.1,1.9-.95,1.9h-37.38Z" transform="translate(-1200 -2277)"/>
</svg>
