<svg xmlns="http://www.w3.org/2000/svg" width="52" height="35" viewBox="0 0 52 35">
  <defs>
    <style>
      .cls-1 {
        fill: #fff;
        fill-rule: evenodd;
      }
    </style>
  </defs>
  <path id="形状_21" data-name="形状 21" class="cls-1" d="M887.252,2308.18a2.517,2.517,0,0,0,.74,1.8l0.009,0.01a2.527,2.527,0,0,0,3.583-.01l10.671-10.67a2.553,2.553,0,0,0,0-3.6l-10.663-10.7a2.56,2.56,0,0,0-3.6.06,2.547,2.547,0,0,0,.009,3.55l8.854,8.87L888,2306.37a2.549,2.549,0,0,0-.749,1.81h0Zm-15.227,6.71,0.017,0.01a2.415,2.415,0,0,0,.706.1,2.558,2.558,0,0,0,2.438-1.84l8.526-29.91a2.483,2.483,0,0,0-.215-1.92,2.527,2.527,0,0,0-1.516-1.22h-0.009a2.6,2.6,0,0,0-.732-0.11,2.531,2.531,0,0,0-2.4,1.79c-0.008.01-.008,0.04-0.017,0.06l-8.535,29.9a2.493,2.493,0,0,0,.215,1.92,2.535,2.535,0,0,0,1.525,1.22h0Zm-9.621-4.91a2.537,2.537,0,0,0,3.592-.01,2.551,2.551,0,0,0,0-3.6l-8.854-8.87,8.863-8.88a2.553,2.553,0,0,0-.061-3.6,2.523,2.523,0,0,0-3.54.01l-10.662,10.66a2.553,2.553,0,0,0,0,3.6Zm0,0" transform="translate(-851 -2280)"/>
</svg>
