<svg xmlns="http://www.w3.org/2000/svg" width="30.03" height="30" viewBox="0 0 30.03 30">
  <defs>
    <style>
      .cls-1 {
        fill: #f48624;
        fill-rule: evenodd;
      }
    </style>
  </defs>
  <path id="形状_14" data-name="形状 14" class="cls-1" d="M1299.99,1520.89l-3.9-3.89a2.452,2.452,0,0,0-3.53.02l-1.92,1.92,7.45,7.44,1.9-1.9a2.559,2.559,0,0,0,0-3.59h0Zm-27.19,15.89c-0.38.55-.88,2.95-1.53,7.02v0.05a2.139,2.139,0,0,0,.5,1.37,1.61,1.61,0,0,0,1.35.5h0.05c3.93-.63,6.27-1.12,7-1.55l-7.37-7.39h0Zm24.39-9.53-7.45-7.43-3.72,3.71-7.45,7.44-4.87,4.87,7.44,7.43,1.83-1.82,10.82-10.8,3.75-3.75Zm-18-10.5a2.44,2.44,0,0,0-3.52,0l-3.95,3.96a2.407,2.407,0,0,0,.05,3.47l1.3,1.3,4-3.99a0.643,0.643,0,0,1,.9-0.01v0.01a0.622,0.622,0,0,1,0,.89v0.01l-4,3.99,1.53,1.52,3.99-3.99a0.643,0.643,0,0,1,.9-0.01v0.01a0.631,0.631,0,0,1,.01.89,0.01,0.01,0,0,1-.01.01l-3.99,3.99,1.3,1.3,7.44-7.44Zm21.1,21.03-5.9-5.89-7.45,7.44,0.5,0.5,4-3.99a0.631,0.631,0,0,1,.89-0.01,0.01,0.01,0,0,1,.01.01,0.622,0.622,0,0,1,0,.89h0l-4,4,1.9,1.89,4-3.99a0.622,0.622,0,0,1,.89,0h0.01a0.634,0.634,0,0,1,0,.9h0l-4,3.99,1.72,1.72a2.442,2.442,0,0,0,3.5.03l3.95-3.97A2.559,2.559,0,0,0,1300.29,1537.78Z" transform="translate(-1271 -1516)"/>
</svg>
